<?xml version="1.0" encoding="UTF-8" standalone="no" ?>
<!DOCTYPE svg PUBLIC "-//W3C//DTD SVG 1.1//EN" "http://www.w3.org/Graphics/SVG/1.1/DTD/svg11.dtd">
<svg xmlns="http://www.w3.org/2000/svg" xmlns:xlink="http://www.w3.org/1999/xlink" version="1.1" width="40" height="40" viewBox="0 0 40 40" xml:space="preserve">
<desc>Created with Fabric.js 3.6.3</desc>
<defs>
</defs>
<g transform="matrix(1 0 0 1 865.5 272)"  >
<linearGradient id="SVGID_1" gradientUnits="userSpaceOnUse" gradientTransform="matrix(1 0 0 1 -65 -65)"  x1="0" y1="0" x2="130" y2="130">
<stop offset="0%" style="stop-color:rgb(209,80,255);stop-opacity: 1"/>
<stop offset="100%" style="stop-color:rgb(0,0,255);stop-opacity: 1"/>
</linearGradient>
<circle style="stroke: none; stroke-width: 1; stroke-dasharray: none; stroke-linecap: butt; stroke-dashoffset: 0; stroke-linejoin: miter; stroke-miterlimit: 4; fill: url(#SVGID_1); fill-rule: nonzero; opacity: 1;"  cx="0" cy="0" r="65" />
</g>
<g transform="matrix(1 0 0 1 582 328.5)"  >
<path style="stroke: rgb(0,0,0); stroke-width: 4; stroke-dasharray: 15 15; stroke-linecap: square; stroke-dashoffset: 0; stroke-linejoin: miter; stroke-miterlimit: 4; fill: rgb(0,128,0); fill-opacity: 0.5; fill-rule: nonzero; opacity: 1;"  transform=" translate(-100, -100)" d="M 0 0 L 200 100 L 170 200 z" stroke-linecap="round" />
</g>
<g transform="matrix(0.22 0 0 0.22 534.14 19.19)"  >
<path style="stroke: rgb(0,0,0); stroke-width: 1; stroke-dasharray: none; stroke-linecap: butt; stroke-dashoffset: 0; stroke-linejoin: round; stroke-miterlimit: 10; fill: rgb(255,162,0); fill-rule: evenodd; opacity: 1;" vector-effect="non-scaling-stroke"  transform=" translate(-59.83, -59.83)" d="m 0 59.82677 l 27.527777 -8.654488 l -19.512508 -21.258898 l 28.167 6.268881 l -6.268881 -28.167 l 21.258898 19.512508 l 8.654488 -27.527777 l 8.654491 27.527777 l 21.258896 -19.512508 l -6.2688828 28.167 l 28.167 -6.268881 l -19.512512 21.258898 l 27.527779 8.654488 l -27.527779 8.654491 l 19.512512 21.258896 l -28.167 -6.2688828 l 6.2688828 28.167 l -21.258896 -19.512512 l -8.654491 27.527779 l -8.654488 -27.527779 l -21.258898 19.512512 l 6.268881 -28.167 l -28.167 6.2688828 l 19.512508 -21.258896 z" stroke-linecap="round" />
</g>
<g transform="matrix(0.38 0 0 0.38 786.08 11.42)"  >
<path style="stroke: rgb(0,0,0); stroke-width: 2; stroke-dasharray: none; stroke-linecap: butt; stroke-dashoffset: 0; stroke-linejoin: round; stroke-miterlimit: 10; fill: rgb(255,134,0); fill-rule: evenodd; opacity: 1;" vector-effect="non-scaling-stroke"  transform=" translate(-59.83, -59.83)" d="m 0 59.82677 l 27.527777 -8.654488 l -19.512508 -21.258898 l 28.167 6.268881 l -6.268881 -28.167 l 21.258898 19.512508 l 8.654488 -27.527777 l 8.654491 27.527777 l 21.258896 -19.512508 l -6.2688828 28.167 l 28.167 -6.268881 l -19.512512 21.258898 l 27.527779 8.654488 l -27.527779 8.654491 l 19.512512 21.258896 l -28.167 -6.2688828 l 6.2688828 28.167 l -21.258896 -19.512512 l -8.654491 27.527779 l -8.654488 -27.527779 l -21.258898 19.512512 l 6.268881 -28.167 l -28.167 6.2688828 l 19.512508 -21.258896 z" stroke-linecap="round" />
</g>
<g transform="matrix(0.25 0 0 0.25 20.07 20.4)"  >
<path style="stroke: rgb(0,0,0); stroke-width: 1; stroke-dasharray: none; stroke-linecap: butt; stroke-dashoffset: 0; stroke-linejoin: round; stroke-miterlimit: 10; fill: rgb(255,129,4); fill-rule: evenodd; opacity: 1;" vector-effect="non-scaling-stroke"  transform=" translate(-59.83, -59.83)" d="m 0 59.82677 l 27.527777 -8.654488 l -19.512508 -21.258898 l 28.167 6.268881 l -6.268881 -28.167 l 21.258898 19.512508 l 8.654488 -27.527777 l 8.654491 27.527777 l 21.258896 -19.512508 l -6.2688828 28.167 l 28.167 -6.268881 l -19.512512 21.258898 l 27.527779 8.654488 l -27.527779 8.654491 l 19.512512 21.258896 l -28.167 -6.2688828 l 6.2688828 28.167 l -21.258896 -19.512512 l -8.654491 27.527779 l -8.654488 -27.527779 l -21.258898 19.512512 l 6.268881 -28.167 l -28.167 6.2688828 l 19.512508 -21.258896 z" stroke-linecap="round" />
</g>
</svg>